<?xml version="1.0" encoding="UTF-8"?>
<svg width="18px" height="18px" viewBox="0 0 18 18" version="1.1" xmlns="http://www.w3.org/2000/svg">
    <path d="M15.4,13.5c-0.3,0.7-0.4,1-0.8,1.6c-0.5,0.8-1.2,1.8-2.1,1.8c-0.8,0-1-0.5-2-0.5s-1.3,0.5-2.1,0.5c-0.8,0-1.5-0.9-2.1-1.8 c-1.1-1.6-2-4.5-2-7.1c0-2.6,1.7-4,3.2-4c0.8,0,1.5,0.5,2,0.5s1.3-0.6,2.2-0.6c0.4,0,1.5,0.1,2.2,0.9c-0.1,0-1.3,0.8-1.3,2.3 c0,1.8,1.6,2.4,1.6,2.4c0,0-0.4,1.3-1.2,2.6C15.7,12.8,15.5,13.2,15.4,13.5z M12.1,3.3c0.4-0.5,0.7-1.2,0.6-1.9 c-0.6,0-1.3,0.4-1.7,0.9C10.6,2.8,10.2,3.5,10.3,4.2C11,4.2,11.7,3.8,12.1,3.3z" fill="#ffffff"/>
</svg>
